# xmcd
#
# Track frame offsets:
#	182
#	9885
#	22152
#	33285
#	45537
#	57302
#	67652
#	79785
#	91547
#	103315
#	114492
#	125850
#	136982
#	147542
#	159652
#
# Disc length: 2291 seconds
#
# Revision: 1
# Processed by: cddbd v1.5.2PL0 Copyright (c) Steve Scherf et al.
# Submitted via: audiograbber 1.83.01
#
DISCID=c508f10f
DTITLE=George Jones - George Jones Country Classics
DYEAR=1997
DGENRE=Country
TTITLE0=The Race Is On
TTITLE1=You Comb Her Hair
TTITLE2=Not What I Had In Mind ( with The Jones Boys)
TTITLE3=A Girl I Used To Know (with The Jones Boys)
TTITLE4=She Thinks I Still Care
TTITLE5=Your Heart Turned Left (And I Was On The Right)
TTITLE6=We Must Have Been Out Of Our Minds (with Melba Montgomery)
TTITLE7=Where Does A Little Tear Come From
TTITLE8=Least Of All
TTITLE9=My Tears Are Overdue
TTITLE10=Running Bear
TTITLE11=You Win Again
TTITLE12=I'm Gonna Change Everything
TTITLE13=Beggar To A King
TTITLE14=Something I Dreamed
EXTD=
EXTT0=
EXTT1=
EXTT2=
EXTT3=
EXTT4=
EXTT5=
EXTT6=
EXTT7=
EXTT8=
EXTT9=
EXTT10=
EXTT11=
EXTT12=
EXTT13=
EXTT14=
PLAYORDER=
